#!OML:ASF F:\VICON\USERDATA\INSTALL\Justin_Nancy\Justin_Nancy.ASF
:FULLY-SPECIFIED
:DEGREES
32
root 12.8726 17.1203 -20.8593 0.613457 3.46117 -4.10121
lowerback 7.13508 0.763817 3.44614
upperback -0.286827 1.47373 3.68502
thorax -4.3173 0.696098 1.7303
lowerneck -16.2934 -4.42989 -9.99493
upperneck 21.2015 -4.8562 5.63363
head 9.8109 -2.42925 2.98486
rclavicle -5.71506e-015 6.12257e-014
rhumerus -27.115 -6.28188 -78.3447
rradius 42.8942
rwrist 1.9924
rhand -15.6961 10.7635
rfingers 7.12502
rthumb 10.4933 -18.9546
lclavicle -5.71506e-015 6.12257e-014
lhumerus -35.9631 8.97194 85.3497
lradius 22.2548
lwrist -10.9741
lhand -11.1404 26.3838
lfingers 7.12502
lthumb 14.8853 55.829
rfemur 5.53533 5.79539 33.9221
rtibia 22.3502
rfoot -17.6796 -11.5469
rtoes -4.50341
lfemur -34.2431 -2.22481 -11.5572
ltibia 30.3012
lfoot -5.40857 10.1062
ltoes -5.49427
33
root 12.8983 17.1056 -20.6106 0.840894 3.13283 -4.07141
lowerback 6.83435 0.778288 3.58623
upperback 0.337847 1.45661 3.81338
thorax -3.49807 0.696561 1.79151
lowerneck -18.811 -4.84164 -10.4741
upperneck 21.7748 -5.00094 5.48441
head 10.515 -2.51957 2.96575
rclavicle -8.44835e-015 -2.54444e-014
rhumerus -25.4722 -6.03018 -78.164
rradius 43.949
rwrist 1.60794
rhand -15.2382 10.6809
rfingers 7.12502
rthumb 10.935 -19.0143
lclavicle -8.44835e-015 -2.54444e-014
lhumerus -34.8006 10.7804 85.1351
lradius 21.5863
lwrist -11.4536
lhand -11.7058 25.3828
lfingers 7.12502
lthumb 14.3405 54.8675
rfemur 6.24071 5.60344 33.8136
rtibia 22.2328
rfoot -17.6524 -11.1555
rtoes -5.8044
lfemur -34.2469 -3.31209 -10.8984
ltibia 27.3302
lfoot -5.40797 11.5147
ltoes -5.37157
34
root 12.9262 17.0591 -20.3623 0.977766 2.66489 -4.065
lowerback 6.4766 1.0988 3.63732
upperback -0.226537 1.88835 3.62951
thorax -3.8778 0.901856 1.53338
lowerneck -16.04 -4.60368 -10.06
upperneck 20.9751 -5.08319 5.56003
head 9.70426 -2.54928 2.93812
rclavicle -4.75592e-014 -4.77083e-015
rhumerus -26.935 -6.58034 -77.9031
rradius 45.276
rwrist 1.14151
rhand -14.9496 10.4226
rfingers 7.12502
rthumb 11.2134 -19.2577
lclavicle -4.75592e-014 -4.77083e-015
lhumerus -36.2537 11.1609 84.2089
lradius 21.1243
lwrist -12.01
lhand -11.4025 25.9956
lfingers 7.12502
lthumb 14.6327 55.4594
rfemur 7.21176 5.6504 33.7548
rtibia 22.0944
rfoot -17.2981 -11.1411
rtoes -7.317
lfemur -34.2723 -4.01488 -10.2915
ltibia 24.767
lfoot -6.15857 13.0017
ltoes -3.07459
35
root 12.9529 17.0119 -20.1199 1.14768 2.36772 -4.0279
lowerback 6.15067 1.24972 3.73467
upperback -0.409648 2.08139 3.51895
thorax -3.87713 0.993639 1.35137
lowerneck -16.0198 -4.15646 -10.0689
upperneck 21.2015 -4.60421 6.13692
head 9.74949 -2.26672 3.21466
rclavicle -1.15792e-014 -1.27222e-014
rhumerus -27.1998 -7.1859 -77.697
rradius 46.2115
rwrist 0.641922
rhand -14.5924 10.0176
rfingers 7.12502
rthumb 11.5579 -19.6438
lclavicle -1.15792e-014 -1.27222e-014
lhumerus -36.8348 12.4344 83.2009
lradius 20.4151
lwrist -13.0179
lhand -10.9798 26.8236
lfingers 7.12502
lthumb 15.0399 56.2573
rfemur 8.189 5.95841 33.6915
rtibia 21.8105
rfoot -17.0076 -11.1786
rtoes -7.36274
lfemur -34.5468 -4.55503 -9.82514
ltibia 22.8007
lfoot -7.41972 14.0612
ltoes 1.71243
36
root 12.9759 16.9904 -19.8698 1.32937 2.2074 -3.9818
lowerback 5.74509 1.31358 3.79293
upperback -0.364273 2.14058 3.47912
thorax -3.59756 1.02527 1.28188
lowerneck -16.1249 -4.30982 -10.5012
upperneck 21.6269 -4.82313 6.60063
head 9.96422 -2.35407 3.42738
rclavicle -6.60959e-015 -1.35174e-014
rhumerus -26.8332 -7.82845 -77.4695
rradius 46.9044
rwrist -0.106891
rhand -13.9016 10.0347
rfingers 7.12502
rthumb 12.224 -19.5881
lclavicle -6.60959e-015 -1.35174e-014
lhumerus -37.0286 14.1303 82.1292
lradius 19.584
lwrist -14.0982
lhand -11.2399 25.7118
lfingers 7.12502
lthumb 14.7894 55.1641
rfemur 9.15512 6.18858 33.6297
rtibia 21.3548
rfoot -16.9829 -10.8356
rtoes -7.13438
lfemur -34.9333 -5.26587 -9.33962
ltibia 21.5294
lfoot -8.51346 14.9198
ltoes 4.95857
37
root 13.003 16.9789 -19.6138 1.31304 1.95295 -3.85405
lowerback 5.73467 1.42711 3.79389
upperback -0.38197 2.28967 3.41599
thorax -3.6067 1.09837 1.20322
lowerneck -15.8286 -4.39319 -10.2688
upperneck 21.4511 -4.94038 6.24821
head 9.84224 -2.43188 3.2462
rclavicle 9.93923e-016 -6.36111e-015
rhumerus -26.7255 -8.42929 -77.1966
rradius 47.4432
rwrist -0.664412
rhand -13.6295 10.3116
rfingers 7.12502
rthumb 12.4864 -19.2954
lclavicle 9.93923e-016 -6.36111e-015
lhumerus -37.4103 15.5518 81.1498
lradius 18.973
lwrist -14.8993
lhand -11.268 25.6236
lfingers 7.12502
lthumb 14.7623 55.0779
rfemur 10.3389 6.20977 33.4508
rtibia 20.9226
rfoot -16.8445 -10.5764
rtoes -8.01132
lfemur -35.0186 -6.46317 -8.74657
ltibia 20.7511
lfoot -10.0748 16.5188
ltoes 7.80107
38
root 13.0298 16.972 -19.356 1.31349 1.74093 -3.59379
lowerback 5.80263 1.53181 3.68234
upperback -0.519101 2.42791 3.28655
thorax -3.78527 1.16473 1.11601
lowerneck -15.2142 -4.52217 -9.86374
upperneck 21.0933 -5.13725 5.66854
head 9.59253 -2.5611 2.94888
rclavicle -3.88624e-014 -4.69132e-014
rhumerus -26.9318 -8.83487 -76.9476
rradius 47.8952
rwrist -1.07001
rhand -13.8242 10.8623
rfingers 7.12502
rthumb 12.2987 -18.756
lclavicle -3.88624e-014 -4.69132e-014
lhumerus -38.0686 16.4255 80.3762
lradius 18.7837
lwrist -15.1916
lhand -11.1133 26.4951
lfingers 7.12502
lthumb 14.9114 55.9384
rfemur 11.3874 6.2629 33.122
rtibia 20.7694
rfoot -16.5807 -10.3622
rtoes -9.97412
lfemur -35.0093 -7.93043 -8.24933
ltibia 20.3552
lfoot -12.2368 18.4915
ltoes 9.40363
